<svg width="32" height="32" viewBox="0 0 32 32" fill="none" xmlns="http://www.w3.org/2000/svg">
<path d="M5.26033 23.9066C5.04255 23.6898 4.76318 23.5455 4.46033 23.4933C4.363 23.4801 4.26433 23.4801 4.167 23.4933C3.78268 23.4928 3.41193 23.6354 3.127 23.8933V23.8933C2.52342 24.4972 2.52342 25.476 3.127 26.0799C3.41523 26.3726 3.80961 26.5361 4.22033 26.5333C4.63136 26.5376 5.02632 26.3739 5.31367 26.0799V26.0799C5.6375 25.7171 5.77532 25.2249 5.687 24.7466C5.63075 24.4307 5.4823 24.1384 5.26033 23.9066Z" fill="#0B1C3F"/>
<path d="M3.87377 19.9866C3.51151 19.9098 3.1365 20.0396 2.89909 20.3237C2.66167 20.6079 2.60074 21 2.74071 21.3429C2.88068 21.6857 3.19864 21.9231 3.56711 21.9599C5.45297 22.2376 6.92995 23.7254 7.19377 25.6133C7.26089 26.1056 7.68361 26.4711 8.18044 26.4666H8.32711C8.87126 26.3843 9.24667 25.8778 9.16711 25.3333C8.79077 22.5585 6.60853 20.3763 3.83377 19.9999L3.87377 19.9866Z" fill="#0B1C3F"/>
<path d="M4.52711 13.9599C4.15729 13.8742 3.77082 14.0053 3.52945 14.2983C3.28807 14.5913 3.23342 14.9957 3.38837 15.3423C3.54332 15.6888 3.88113 15.9178 4.26044 15.9333C8.95805 16.5125 12.6552 20.2206 13.2204 24.9199C13.2876 25.4196 13.7163 25.7911 14.2204 25.7866H14.3404C14.604 25.7534 14.8436 25.6166 15.0062 25.4065C15.1688 25.1963 15.2411 24.9301 15.2071 24.6666C14.5073 19.0911 10.116 14.6998 4.54044 13.9999L4.52711 13.9599Z" fill="#0B1C3F"/>
<path d="M4.18043 16.9866C3.81061 16.9008 3.42414 17.0319 3.18277 17.3249C2.94139 17.6179 2.88674 18.0223 3.04169 18.3689C3.19664 18.7154 3.53445 18.9444 3.91376 18.9599C5.51423 19.1656 7.001 19.8973 8.14043 21.0399C9.28206 22.1746 10.0138 23.6569 10.2204 25.2532C10.2814 25.7508 10.7058 26.1236 11.2071 26.1199H11.3271C11.5909 26.0836 11.8293 25.9435 11.9895 25.7307C12.1497 25.518 12.2184 25.2501 12.1804 24.9866C11.892 22.9671 10.9563 21.0956 9.51376 19.6532C8.07539 18.2051 6.20197 17.2684 4.18043 16.9866V16.9866Z" fill="#0B1C3F"/>
<path d="M23.327 5.33325H8.79369C5.61038 5.3406 3.03368 7.92326 3.03369 11.1066C3.03369 11.6589 3.48141 12.1066 4.03369 12.1066C4.58598 12.1066 5.03369 11.6589 5.03369 11.1066C5.03015 10.1071 5.42472 9.14726 6.13024 8.43924C6.83577 7.73122 7.79416 7.33325 8.79369 7.33325H23.327C25.3849 7.36962 27.034 9.04839 27.0337 11.1066V20.0666C27.0195 22.1144 25.3746 23.7771 23.327 23.8133H18.527C17.9747 23.8133 17.527 24.261 17.527 24.8133C17.527 25.3655 17.9747 25.8133 18.527 25.8133H23.327C26.5103 25.8133 29.093 23.2366 29.1004 20.0533V11.1066C29.1004 7.91806 26.5155 5.33325 23.327 5.33325Z" fill="#0B1C3F"/>
</svg>
