<svg width="32" height="32" viewBox="0 0 32 32" fill="none" xmlns="http://www.w3.org/2000/svg">
<path fill-rule="evenodd" clip-rule="evenodd" d="M13.2066 18.1436C14.1841 18.1436 15.1162 18.5563 15.7733 19.28C17.1561 20.831 17.1675 23.169 15.7999 24.7334L12.5866 28.1867C12.0962 28.73 11.3985 29.04 10.6666 29.04C9.93471 29.04 9.23706 28.73 8.74661 28.1867L5.53328 24.7334C4.16404 23.1734 4.16404 20.84 5.53328 19.28C6.19035 18.5563 7.12243 18.1436 8.09995 18.1436C9.07087 18.1436 9.99697 18.5508 10.6533 19.2654C11.3096 18.5508 12.2357 18.1436 13.2066 18.1436ZM11.0799 26.8134L14.2933 23.3734C14.9506 22.564 14.945 21.4031 14.2799 20.6C14.0139 20.2824 13.6209 20.0989 13.2066 20.0989C12.7923 20.0989 12.3993 20.2824 12.1333 20.6L11.3733 21.4534C11.1854 21.6687 10.9124 21.7906 10.6266 21.7867C10.3416 21.7871 10.07 21.6658 9.87995 21.4534L9.11995 20.6C8.86863 20.259 8.47022 20.0577 8.04661 20.0577C7.623 20.0577 7.2246 20.259 6.97328 20.6C6.30681 21.4044 6.30681 22.5691 6.97328 23.3734L10.1733 26.8134C10.29 26.9419 10.4532 27.0187 10.6266 27.0267C10.8008 27.0217 10.9651 26.9444 11.0799 26.8134Z" fill="#29ADE3"/>
<path fill-rule="evenodd" clip-rule="evenodd" d="M17.9066 3.22668L27.2399 12.56C27.4418 12.7653 27.5482 13.0458 27.5332 13.3334V22.6667C27.5332 26.1645 24.6977 29 21.1999 29H17.3332C16.7809 29 16.3332 28.5523 16.3332 28C16.3332 27.4477 16.7809 27 17.3332 27H21.1999C23.5901 26.9927 25.5259 25.0569 25.5332 22.6667V14.3334H19.8666C17.8415 14.3334 16.1999 12.6917 16.1999 10.6667V4.97335H13.1999C12.046 4.97333 10.9397 5.43353 10.1263 6.25197C9.31287 7.0704 8.85946 8.17947 8.86656 9.33335V16C8.86656 16.5523 8.41885 17 7.86656 17C7.31428 17 6.86656 16.5523 6.86656 16V9.33335C6.84876 7.64212 7.50815 6.01404 8.69782 4.81185C9.88748 3.60966 11.5086 2.93326 13.1999 2.93335H17.1999C17.465 2.93358 17.7192 3.03909 17.9066 3.22668ZM18.1999 6.36002V10.6667C18.2145 11.5767 18.9564 12.3068 19.8666 12.3067H24.1466L18.1999 6.36002Z" fill="#29ADE3"/>
</svg>
