<svg width="32" height="32" viewBox="0 0 32 32" fill="none" xmlns="http://www.w3.org/2000/svg">
<g clip-path="url(#clip0_2_6482)">
<path d="M16.1334 27.7333C15.4667 27.7333 14.6667 27.4667 14.1334 26.9333C5.46675 19.3333 5.33341 19.2 5.33341 19.0667L5.20008 18.9333C3.60008 17.3333 2.66675 15.0667 2.66675 12.8V12.5333C2.80008 7.73333 6.66675 4 11.4667 4C12.9334 4 14.9334 4.8 16.1334 6.4C17.3334 4.8 19.4667 4 20.9334 4C25.7334 4 29.4667 7.73333 29.7334 12.5333V12.8C29.7334 15.2 28.8001 17.3333 27.2001 19.0667L27.0667 19.2C26.9334 19.3333 25.8667 20.2667 18.2667 27.0667C17.6001 27.4667 16.9334 27.7333 16.1334 27.7333ZM7.33342 18.6667C7.86675 19.2 10.5334 21.0667 15.4667 25.3333C15.8667 25.7333 16.4001 25.7333 16.8001 25.3333C21.8667 20.8 24.8001 18.2667 25.4667 17.7333L25.6001 17.6C26.9334 16.2667 27.6001 14.5333 27.6001 12.8V12.5333C27.4667 8.8 24.5334 6 20.8001 6C19.8667 6 18.0001 6.66667 17.3334 8.13333C17.0667 8.66667 16.5334 8.93333 16.0001 8.93333C15.4667 8.93333 14.9334 8.66667 14.6667 8.13333C14.0001 6.8 12.2667 6 11.2001 6C7.60008 6 4.53341 8.93333 4.40008 12.5333V12.9333C4.40008 14.6667 5.20008 16.4 6.40008 17.6L7.33342 18.6667Z" fill="#29ADE3"/>
</g>
<defs>
<clipPath id="clip0_2_6482">
<rect width="32" height="32" fill="white"/>
</clipPath>
</defs>
</svg>
