<svg xmlns="http://www.w3.org/2000/svg" xmlns:xlink="http://www.w3.org/1999/xlink" viewBox="0 0 1079.56 817.7"><defs><style>.cls-1,.cls-2,.cls-3{fill-rule:evenodd;}.cls-1{fill:url(#GradientFill_1);}.cls-2{fill:url(#GradientFill_2);}.cls-3{fill:#636b6b;}</style><linearGradient id="GradientFill_1" x1="593.07" y1="533.89" x2="537.88" y2="9.98" gradientUnits="userSpaceOnUse"><stop offset="0" stop-color="#c77fb6"/><stop offset="1" stop-color="#543092"/></linearGradient><linearGradient id="GradientFill_2" x1="653.25" y1="343.68" x2="412.25" y2="10.28" gradientUnits="userSpaceOnUse"><stop offset="0" stop-color="#3c5daa"/><stop offset="1" stop-color="#88d1cf"/></linearGradient></defs><g id="Camada_2" data-name="Camada 2"><g id="Camada_1-2" data-name="Camada 1"><path class="cls-1" d="M741.79,487.14c-19.49,33-45.77,60.25-85.72,70.07C519,590.9,484.3,434.77,422.31,297.67L370.78,183.79h0C334.71,106.47,306.34-11.6,206.08,72.52c43.1-84.74,172.86-104.7,232.59,4.56-.42.24,40,88.86,43.46,97l.07,0,52.85,115.13c18.77,36.3,77.34,229.88,113.38,144.67,7.39-17.48,29.59-69.73,38.85-84.51h0l26.42-58.57h-.05l61.68-136.49h0c1.75-4.82,82-145.5-52.58-145,42.4-20.53,114.36,4.43,148.14,56.36,40.65,62.47-2.79,137.13-29.18,202.09C810.32,344.93,775.87,429.52,741.79,487.14Z"/><path class="cls-2" d="M338.45,487.14c19.49,33,45.76,60.25,85.72,70.07C561.22,590.9,595.94,434.77,657.93,297.67l51.53-113.88h0c36.06-77.32,65.35-195.38,165.61-111.26C832-12.21,701.3-32.18,641.57,77.08c.42.24-40,88.86-43.46,97l-.08,0L545.19,289.15C526.42,325.45,467.85,519,431.81,433.82c-7.4-17.48-29.59-69.73-38.85-84.51h0l-26.41-58.57h.05L304.9,154.25h0c-1.76-4.82-82.63-147.64,51.94-147.2-42.4-20.52-114.57,5.31-148.35,57.24-40.65,62.47,3.64,138.41,30,203.36C269.92,344.93,304.36,429.52,338.45,487.14Z"/><path class="cls-3" d="M83.32,801.85a32.43,32.43,0,0,1-8,11.24A18,18,0,0,1,63,817.47H61.07a18.26,18.26,0,0,1-12.31-4.26,30.81,30.81,0,0,1-8-11.36L1.89,712.14c-.47-1.26-.9-2.6-1.3-4A17.88,17.88,0,0,1,0,703.38a16.25,16.25,0,0,1,5.09-11.6,16.7,16.7,0,0,1,12.43-5.2q7.34,0,11.48,3.66a21.3,21.3,0,0,1,6,9.12L62.25,773l27.69-74.09a24.71,24.71,0,0,1,5.8-8.52q3.92-3.78,11-3.78a17,17,0,0,1,12.19,4.85A16.14,16.14,0,0,1,124,703.62a17.74,17.74,0,0,1-.71,4.85c-.48,1.66-.87,2.88-1.19,3.67L83.32,801.85Zm168.52.47a64.28,64.28,0,0,1-19.17,11.24,69.58,69.58,0,0,1-24.85,4.14A72.15,72.15,0,0,1,181.43,813a61,61,0,0,1-21.07-13.49,62.17,62.17,0,0,1-13.85-20.83,69,69,0,0,1-5-26.51v-.47a70.93,70.93,0,0,1,4.62-25.57A65.09,65.09,0,0,1,159.06,705a60.13,60.13,0,0,1,19.88-14.2,61.16,61.16,0,0,1,25.33-5.21q15.85,0,27.45,5.8a58,58,0,0,1,19.06,14.79,60.3,60.3,0,0,1,11,19.77,66,66,0,0,1,3.55,20.71c0,5.2-1.61,9.39-4.85,12.54a16.44,16.44,0,0,1-12,4.74H177.28q2.61,12.3,10.77,18.58t20.24,6.27a40.77,40.77,0,0,0,13.85-2.25,45.32,45.32,0,0,0,11.71-6.27,13.3,13.3,0,0,1,8.76-2.84,13.41,13.41,0,0,1,10.06,4,14,14,0,0,1,3.91,10.18,12.7,12.7,0,0,1-1.42,6.15,19.3,19.3,0,0,1-3.32,4.5ZM231,741.49q-1.65-12.07-8.52-19.53t-18.22-7.45q-11.37,0-18.35,7.33t-9.11,19.65ZM335.63,817a59.26,59.26,0,0,1-15-1.77A26.81,26.81,0,0,1,309,809a30.2,30.2,0,0,1-7.57-11.84q-2.71-7.33-2.72-18.22V718.77h-1.18a15.39,15.39,0,1,1,0-30.77h1.18V672.14a18,18,0,1,1,36,0V688h15.86a15.39,15.39,0,1,1,0,30.77H334.69V773q0,12.31,11.59,12.31c.64,0,1.42,0,2.37-.12s1.58-.12,1.9-.12A15,15,0,0,1,365.46,800a13.73,13.73,0,0,1-2.73,8.41,14.3,14.3,0,0,1-6.5,5.08,52.46,52.46,0,0,1-9.83,2.73,64.46,64.46,0,0,1-10.77.82Zm115,.71a64.66,64.66,0,0,1-25.8-5.08,64,64,0,0,1-20.48-13.85,63.1,63.1,0,0,1-13.49-20.59,65.61,65.61,0,0,1-4.85-25.09v-.48a66.42,66.42,0,0,1,4.85-25.2,63.09,63.09,0,0,1,13.61-20.83,66,66,0,0,1,20.59-14.09,64,64,0,0,1,26-5.2q14.91,0,25.33,4.37a70.11,70.11,0,0,1,18.46,11.25,14.65,14.65,0,0,1,3,3.79,11.89,11.89,0,0,1,1.54,6.15,12.38,12.38,0,0,1-3.91,9.23,13,13,0,0,1-9.35,3.79,14,14,0,0,1-4.85-.83,12.33,12.33,0,0,1-3.67-2,50.08,50.08,0,0,0-11.83-7.7,35.28,35.28,0,0,0-14.92-3,32.77,32.77,0,0,0-14.43,3.19A37.18,37.18,0,0,0,425,724.09a38.61,38.61,0,0,0-7.58,12.55,43.67,43.67,0,0,0-2.72,15.5v.47a44.71,44.71,0,0,0,2.72,15.63A38.85,38.85,0,0,0,425.1,781a35.52,35.52,0,0,0,11.84,8.52,39.07,39.07,0,0,0,30.41,0,55.54,55.54,0,0,0,12.67-8,11.21,11.21,0,0,1,3.19-2.13,10.74,10.74,0,0,1,4.62-1,11.74,11.74,0,0,1,8.76,3.67,12.34,12.34,0,0,1,3.55,8.88,11,11,0,0,1-4,9,65.79,65.79,0,0,1-19.05,12.9q-10.77,4.86-26.39,4.85ZM588,792.62a37,37,0,0,0,27.69-11.72,36,36,0,0,0,7.58-12.55,44.76,44.76,0,0,0,2.6-15.26v-.48A43,43,0,0,0,623,737a39.25,39.25,0,0,0-7.93-12.78A38,38,0,0,0,603,715.57a39.28,39.28,0,0,0-31,0,37.48,37.48,0,0,0-12,8.52,36,36,0,0,0-7.57,12.55,45.24,45.24,0,0,0-2.61,15.5v.47A42.32,42.32,0,0,0,552.68,768a39.42,39.42,0,0,0,7.93,12.78,38,38,0,0,0,12.07,8.64,36.29,36.29,0,0,0,15.27,3.2Zm-.47,25.08a67.9,67.9,0,0,1-26.4-5.08A65.81,65.81,0,0,1,540,798.77a62.79,62.79,0,0,1-13.85-20.59,64.22,64.22,0,0,1-5-25.09v-.48a63.46,63.46,0,0,1,5.09-25.32,65.51,65.51,0,0,1,14-20.71,66.2,66.2,0,0,1,21.06-14.09,67.11,67.11,0,0,1,26.63-5.2,68.49,68.49,0,0,1,26.63,5.08,64.14,64.14,0,0,1,34.91,34.56,64,64,0,0,1,5,25.21v.47a62.88,62.88,0,0,1-5.09,25.09,64.91,64.91,0,0,1-35.15,34.8,67.93,67.93,0,0,1-26.74,5.2Zm96.09-114.79a14.22,14.22,0,0,1,4-10.3,13.58,13.58,0,0,1,10.18-4.14,14.15,14.15,0,0,1,14.43,14.44v6.15a94.37,94.37,0,0,1,6.75-8.28,38.94,38.94,0,0,1,8.52-7,46.25,46.25,0,0,1,10.65-4.74,45,45,0,0,1,13.14-1.77q21.3,0,32.9,13t11.6,34.8v66.75a13.78,13.78,0,0,1-14.2,14.2,14.16,14.16,0,0,1-10.3-4,13.57,13.57,0,0,1-4.14-10.17v-58q0-14.68-7-22.61t-19.76-7.93q-12.54,0-20.35,8.17t-7.82,22.84v57.52A13.57,13.57,0,0,1,708.07,812a14.16,14.16,0,0,1-10.29,4,13.87,13.87,0,0,1-10.06-4,13.55,13.55,0,0,1-4.15-10.17V702.91Zm249,98.23a68.1,68.1,0,0,1-19.41,12.07q-10.89,4.5-25.56,4.49A66.56,66.56,0,0,1,862.4,813a60.42,60.42,0,0,1-34-33.73,68.13,68.13,0,0,1-5-26.39v-.47a70.66,70.66,0,0,1,4.5-25.33,63.74,63.74,0,0,1,12.66-20.71,59.86,59.86,0,0,1,19.29-14,58.53,58.53,0,0,1,24.62-5.08q14.91,0,26,5.56a57.41,57.41,0,0,1,18.58,14.44,60.34,60.34,0,0,1,11.13,19.76,67.75,67.75,0,0,1,3.67,21.78,13,13,0,0,1-4,9.94,13.36,13.36,0,0,1-9.46,3.79H852.1q2.37,15.38,12.19,23.55t23.79,8.16a42.26,42.26,0,0,0,16.21-3,53.4,53.4,0,0,0,13.38-7.93,19.84,19.84,0,0,1,3.19-1.89,10.1,10.1,0,0,1,4.14-.71,11,11,0,0,1,8,3.31,11.89,11.89,0,0,1,2.25,13.14,14,14,0,0,1-2.72,3.91ZM916,743.62a48.68,48.68,0,0,0-3.08-12.9,34.56,34.56,0,0,0-6.39-10.53,28.1,28.1,0,0,0-9.59-7,30.79,30.79,0,0,0-12.66-2.48q-13.26,0-21.89,9.11t-10.54,23.79ZM966.66,804a14.57,14.57,0,0,1,4-9.94l35.51-42.61-32.9-39a24.54,24.54,0,0,1-3.55-5.45,13,13,0,0,1-1.19-5.44q0-6.15,3.91-9.71a13.44,13.44,0,0,1,9.35-3.55,14.3,14.3,0,0,1,7.46,1.9,20.89,20.89,0,0,1,5.79,5.2l28.17,36.93,28.64-36.69a25.45,25.45,0,0,1,5.56-5.33,11.74,11.74,0,0,1,6.75-2,13.78,13.78,0,0,1,9.59,3.55,11.65,11.65,0,0,1,3.9,9,12.32,12.32,0,0,1-1.06,5.32,18.68,18.68,0,0,1-3,4.38L1039.8,751l35,41.42a24.5,24.5,0,0,1,3.55,5.44,13,13,0,0,1,1.18,5.45q0,6.15-3.9,9.7a13.4,13.4,0,0,1-9.35,3.55,14.39,14.39,0,0,1-7.46-1.89,19.79,19.79,0,0,1-5.8-5.45l-30.29-39-30.3,39a30.76,30.76,0,0,1-5.56,5.21,11.63,11.63,0,0,1-7,2.13,13.4,13.4,0,0,1-9.35-3.55A11.6,11.6,0,0,1,966.66,804Z"/></g></g></svg>