<svg width="32" height="32" viewBox="0 0 32 32" fill="none" xmlns="http://www.w3.org/2000/svg">
<path fill-rule="evenodd" clip-rule="evenodd" d="M28.1335 9.01336H27.8535V7.68003C27.8535 5.72645 26.2737 4.14071 24.3201 4.13336H6.53347C5.58349 4.13677 4.67458 4.52114 4.01039 5.20036C3.34621 5.87958 2.98228 6.79687 3.00014 7.7467V16.64C3.00014 17.5771 3.3724 18.4758 4.03503 19.1385C4.69766 19.8011 5.59637 20.1734 6.53347 20.1734H20.5068V22.0267H7.81347C7.26119 22.0267 6.81347 22.4744 6.81347 23.0267C6.81347 23.579 7.26119 24.0267 7.81347 24.0267H20.5068V24.2534C20.5141 25.6568 21.65 26.7927 23.0535 26.8H28.1335C29.5347 26.7927 30.6668 25.6547 30.6668 24.2534V11.56C30.6704 10.8858 30.405 10.238 29.9295 9.76007C29.4541 9.28209 28.8077 9.01335 28.1335 9.01336ZM6.53347 18.1734C5.68965 18.1661 5.00738 17.4838 5.00014 16.64V7.7467C5.00011 6.89767 5.68448 6.20735 6.53347 6.20003H24.3201C24.7291 6.20001 25.1212 6.36339 25.4091 6.65384C25.6971 6.94428 25.857 7.33772 25.8535 7.7467V9.08003H23.0535C21.65 9.08732 20.5141 10.2232 20.5068 11.6267V18.2934L6.53347 18.1734ZM28.1335 24.8C28.4302 24.7928 28.6669 24.5501 28.6668 24.2534V11.56C28.6704 11.4163 28.6158 11.2772 28.5154 11.1743C28.415 11.0713 28.2773 11.0133 28.1335 11.0134H23.0535C22.7545 11.0204 22.5138 11.2611 22.5068 11.56V24.2534C22.5138 24.5523 22.7545 24.793 23.0535 24.8H28.1335Z" fill="#29ADE3"/>
<path d="M26.8534 11.8267H24.3201C23.7678 11.8267 23.3201 12.2744 23.3201 12.8267C23.3201 13.379 23.7678 13.8267 24.3201 13.8267H26.8534C27.4057 13.8267 27.8534 13.379 27.8534 12.8267C27.8534 12.2744 27.4057 11.8267 26.8534 11.8267Z" fill="#29ADE3"/>
</svg>
