<svg width="33" height="32" viewBox="0 0 33 32" fill="none" xmlns="http://www.w3.org/2000/svg">
<path fill-rule="evenodd" clip-rule="evenodd" d="M29.6412 17.1072L27.3879 6.21388C26.964 4.15011 25.1481 2.66842 23.0412 2.66722H9.64123C7.50939 2.63647 5.65665 4.12537 5.2279 6.21388L2.97457 17.1072C2.58755 18.3053 3.0121 19.6166 4.0279 20.3605L14.6012 28.0939C15.6219 28.824 16.9939 28.824 18.0146 28.0939L28.5879 20.4139C29.627 19.6625 30.0542 18.3212 29.6412 17.1072ZM27.2679 18.5339L16.6946 26.2272C16.4619 26.3881 16.1539 26.3881 15.9212 26.2272L5.3479 18.5339C5.11297 18.3706 5.01498 18.0712 5.1079 17.8005C5.11386 17.7207 5.11386 17.6404 5.1079 17.5605L7.4279 6.66722C7.64661 5.62661 8.57829 4.89137 9.64123 4.92055H23.1079C24.1459 4.92344 25.0407 5.65147 25.2546 6.66722L27.5079 17.5605C27.5019 17.6404 27.5019 17.7207 27.5079 17.8005C27.6008 18.0712 27.5028 18.3706 27.2679 18.5339ZM19.8146 8.49388L11.3879 16.9339C11.1973 17.1196 11.0898 17.3744 11.0898 17.6405C11.0898 17.9067 11.1973 18.1615 11.3879 18.3472C11.5753 18.5348 11.8294 18.6403 12.0946 18.6405C12.3586 18.6348 12.6108 18.5301 12.8012 18.3472L21.2279 9.90722C21.4185 9.7215 21.526 9.46667 21.526 9.20055C21.526 8.93443 21.4185 8.6796 21.2279 8.49388C20.8375 8.10394 20.205 8.10394 19.8146 8.49388ZM12.7879 13.7205C13.0525 13.7175 13.3056 13.6124 13.4946 13.4272L16.3079 10.6139C16.675 10.2199 16.6642 9.60587 16.2834 9.22505C15.9026 8.84424 15.2886 8.8334 14.8946 9.20055L12.0812 12.0139C11.6913 12.4043 11.6913 13.0368 12.0812 13.4272C12.2717 13.6101 12.5239 13.7148 12.7879 13.7205Z" fill="#0B1C3F"/>
</svg>
